# xmcd CD database file
#
# Track frame offsets:
#	150
#	13751
#	24640
#	35095
#	47292
#	59985
#	72000
#	84867
#	96955
#	109536
#	122051
#	134694
#	144691
#	157081
#	170536
#	182879
#	196368
#	210805
#
# Disc length: 2971 seconds
#
# Revision: 1
# Processed by: cddbd v1.5.1PL0 Copyright (c) Steve Scherf et al.
# Submitted via: CDex 1.51
#
DISCID=020b9912
DTITLE=Lightnin Hopkins - The Blues - King Of Texas - 1946-1952 - CD1
DYEAR=2004
DGENRE=Blues
TTITLE0=Katie Mae Blues
TTITLE1=Short Haired Woman
TTITLE2=Lightnin's Boogie
TTITLE3=Miss Loretta
TTITLE4=Walking Blues
TTITLE5=Tom Moore Blues
TTITLE6=Baby Please Don't Go
TTITLE7=Jailhouse Blues
TTITLE8=Automobile Blues
TTITLE9=Zydeco
TTITLE10=Jackstropper Blues
TTITLE11=Lightnin's Rock
TTITLE12=Street Walkin Woman
TTITLE13=Long Haired Woman
TTITLE14=Coffee Blues
TTITLE15=Hello Central
TTITLE16=Tell Me Boogie
TTITLE17=Gotta Move Boogie
EXTD=YEAR: 2004
EXTT0=
EXTT1=
EXTT2=
EXTT3=
EXTT4=
EXTT5=
EXTT6=
EXTT7=
EXTT8=
EXTT9=
EXTT10=
EXTT11=
EXTT12=
EXTT13=
EXTT14=
EXTT15=
EXTT16=
EXTT17=
PLAYORDER=
